<svg width="16" height="16" viewBox="0 0 16 16" fill="none" xmlns="http://www.w3.org/2000/svg">
<path d="M14.5 11.8333V4.16667C14.5 3.98986 14.4298 3.82029 14.3047 3.69526C14.1797 3.57024 14.0101 3.5 13.8333 3.5H2.16667C1.98986 3.5 1.82029 3.57024 1.69526 3.69526C1.57024 3.82029 1.5 3.98986 1.5 4.16667V11.8333C1.5 12.0101 1.57024 12.1797 1.69526 12.3047C1.82029 12.4298 1.98986 12.5 2.16667 12.5H13.8333C14.0101 12.5 14.1797 12.4298 14.3047 12.3047C14.4298 12.1797 14.5 12.0101 14.5 11.8333Z" stroke="white" stroke-linecap="round" stroke-linejoin="round"/>
<path d="M14.5 4.99365L8 7.99999L1.5 4.99365" stroke="white" stroke-linecap="round" stroke-linejoin="round"/>
</svg>
