<svg width="20" height="20" viewBox="0 0 20 20" fill="none" xmlns="http://www.w3.org/2000/svg">
<path d="M2.125 0.375C1.16775 0.375 0.375 1.16775 0.375 2.125V17.875C0.375 18.8323 1.16775 19.625 2.125 19.625H17.875C18.8323 19.625 19.625 18.8323 19.625 17.875V2.125C19.625 1.16775 18.8323 0.375 17.875 0.375H2.125ZM2.125 2.125H17.875V17.875H13.3355V11.9688H15.6053L15.9334 9.34375H13.3364V7.648C13.3364 6.88325 13.5236 6.3635 14.6209 6.3635H16.0428V3.98438C15.8004 3.95375 14.9595 3.90213 13.9926 3.90213C11.9757 3.90213 10.602 5.11575 10.602 7.375V9.34375H8.30512V11.9688H10.6011V17.875H2.125V2.125Z" fill="#4D974C"/>
</svg>
