<svg width="8" height="5" viewBox="0 0 8 5" fill="none" xmlns="http://www.w3.org/2000/svg">
<path d="M7.12365 0.328761L3.9999 3.37376L0.876145 0.328761C0.820334 0.274247 0.745412 0.243728 0.667395 0.243728C0.589378 0.243728 0.514456 0.274247 0.458645 0.328761C0.431621 0.355239 0.410153 0.386842 0.395496 0.421721C0.38084 0.4566 0.373291 0.494053 0.373291 0.531886C0.373291 0.569719 0.38084 0.607172 0.395496 0.642051C0.410153 0.67693 0.431621 0.708533 0.458645 0.735011L3.78177 3.97501C3.84013 4.03189 3.9184 4.06373 3.9999 4.06373C4.08139 4.06373 4.15966 4.03189 4.21802 3.97501L7.54115 0.735636C7.56836 0.709139 7.58999 0.677457 7.60476 0.642463C7.61953 0.607468 7.62714 0.56987 7.62714 0.531886C7.62714 0.493902 7.61953 0.456303 7.60476 0.421309C7.58999 0.386314 7.56836 0.354633 7.54115 0.328136C7.48533 0.273622 7.41041 0.243103 7.3324 0.243103C7.25438 0.243103 7.17946 0.273622 7.12365 0.328136V0.328761Z" fill="white"/>
</svg>
