<svg width="26" height="19" viewBox="0 0 26 19" fill="none" xmlns="http://www.w3.org/2000/svg">
<path d="M0.0761719 3.29688C0.0761719 2.33203 0.736328 1.95117 1.54883 1.90039L5.33203 1.92578C5.56055 1.92578 5.76367 2.07812 5.83984 2.30664C6.70312 5.09961 7.76953 6.82617 9.03906 8.78125C9.11523 8.93359 9.24219 9.00977 9.36914 9.00977C9.4707 9.00977 9.57227 8.95898 9.64844 8.83203L9.72461 8.55273L9.75 4.16016C9.75 3.52539 9.44531 3.42383 8.73438 3.32227C8.45508 3.27148 8.27734 3.01758 8.27734 2.76367C8.27734 2.71289 8.27734 2.66211 8.30273 2.61133C8.6582 1.51953 9.77539 0.960938 11.3496 0.960938L12.7715 0.935547C13.9395 0.935547 15.0059 1.44336 15.0059 2.94141V8.70508C15.1074 8.78125 15.209 8.83203 15.3359 8.83203C15.5391 8.83203 15.793 8.70508 15.9961 8.375C17.3164 6.52148 18.8145 4.3125 19.0176 3.14453C19.0176 3.09375 19.043 3.06836 19.0684 3.01758C19.3477 2.45898 20.0586 2.07812 20.3633 1.97656C20.4141 1.95117 20.4902 1.92578 20.5918 1.92578H24.5273L24.7812 1.95117C25.1621 1.95117 25.4414 2.20508 25.5684 2.43359C25.7969 2.78906 25.7461 3.16992 25.7715 3.32227V3.5C25.3906 5.81055 22.75 8.40039 21.6328 10.0762C21.4805 10.2793 21.4043 10.457 21.4043 10.6348C21.4043 10.7871 21.4805 10.9395 21.6074 11.0918L25.3145 15.7637C25.5176 16.043 25.6191 16.373 25.6191 16.6523C25.6191 17.4902 24.832 17.9727 24.0703 18.0488L23.6387 18.0742H19.7793C19.7031 18.0742 19.6523 18.0996 19.5762 18.0996C19.1445 18.0996 18.7891 17.8711 18.5352 17.6172C17.7227 16.627 16.9355 15.6113 16.1484 14.6211C15.9961 14.418 15.9453 14.3926 15.793 14.291C15.6152 15.0273 15.4629 15.7891 15.2852 16.5508L15.209 16.9824C15.082 17.4395 14.752 17.9219 14.1426 18.0488L13.7871 18.0742H11.2988C6.90625 18.0742 2.9707 11.8281 0.203125 4.0332C0.126953 3.83008 0.0761719 3.55078 0.0761719 3.29688ZM15.3359 9.87305C14.6758 9.87305 13.9395 9.49219 13.9395 8.78125V2.94141C13.9395 2.25586 13.6348 2.00195 12.7969 2.00195L11.3496 2.05273C10.5371 2.05273 10.0801 2.17969 9.69922 2.43359C10.2832 2.71289 10.8164 3.09375 10.8164 4.16016V8.62891C10.7402 9.51758 10.0039 10.1016 9.29297 10.1016C8.81055 10.1016 8.37891 9.82227 8.125 9.36523C6.98242 7.63867 6.01758 6.01367 5.17969 3.67773L4.95117 3.01758L1.57422 2.99219C1.11719 2.99219 1.16797 3.01758 1.16797 3.24609C1.16797 3.39844 1.19336 3.60156 1.21875 3.72852L1.75195 5.15039C4.51953 12.3105 7.99805 17.0078 11.2988 17.0078H13.8379C14.1934 17.0078 14.168 16.5762 14.2441 16.3223L14.7266 14.0879C14.8281 13.8594 14.9043 13.6562 15.082 13.4785C15.2852 13.2754 15.5137 13.1992 15.7422 13.1992C16.2246 13.1992 16.6816 13.5801 16.9863 13.9355L19.1445 16.6777C19.3223 16.957 19.4746 17.0078 19.5762 17.0078H23.7656C24.1719 17.0078 24.5273 16.8809 24.5273 16.627C24.5273 16.5508 24.502 16.4492 24.4512 16.373L20.7695 11.7773C20.4648 11.3965 20.3379 11.0156 20.3379 10.6348C20.3379 10.2285 20.4902 9.82227 20.7441 9.4668C21.8105 7.86719 24.0957 5.58203 24.6289 3.70312L24.7051 3.37305C24.6797 3.24609 24.6797 3.14453 24.6543 3.01758H20.668C20.4141 3.11914 20.2109 3.27148 20.0586 3.47461L19.9062 3.95703C19.3223 5.58203 17.7227 7.81641 16.5801 9.36523C16.1992 9.7207 15.7676 9.87305 15.3359 9.87305Z" fill="#4D974C"/>
</svg>
